<?xml version="1.0" standalone="no"?>
<!DOCTYPE svg PUBLIC "-//W3C//DTD SVG 20010904//EN"
 "http://www.w3.org/TR/2001/REC-SVG-20010904/DTD/svg10.dtd">
<svg version="1.0" xmlns="http://www.w3.org/2000/svg"
 width="100%" height="100%" viewBox="0 0 512 512"
 preserveAspectRatio="xMidYMid meet">

<g transform="translate(0.000000,192.000000) scale(0.100000,-0.100000)"
fill="#000000" stroke="none">
<path d="M693 1633 c15 -2 32 -13 37 -23 6 -11 20 -25 32 -31 14 -7 9 1 -14
25 -23 23 -43 35 -59 35 -22 -2 -21 -2 4 -6z"/>
<path d="M625 1620 c-12 -4 -27 -16 -35 -26 -14 -18 -14 -18 4 -4 10 8 31 20
45 27 29 13 17 16 -14 3z"/>
<path d="M875 1560 c-16 -7 -17 -9 -3 -9 9 -1 20 4 23 9 7 11 7 11 -20 0z"/>
<path d="M580 1550 c0 -5 6 -10 13 -10 8 0 22 -9 33 -21 17 -19 18 -21 1 -30
-9 -6 -17 -18 -16 -27 0 -14 2 -14 6 -2 4 8 13 20 22 27 14 10 14 13 -4 33
-25 28 -55 44 -55 30z"/>
<path d="M807 1538 c2 -5 10 -8 18 -8 8 0 16 3 18 8 3 4 -5 7 -18 7 -13 0 -21
-3 -18 -7z"/>
<path d="M938 1523 c5 -21 7 -23 10 -9 2 10 0 22 -6 28 -6 6 -7 0 -4 -19z"/>
<path d="M921 1467 c-13 -21 -12 -21 5 -5 10 10 16 20 13 22 -3 3 -11 -5 -18
-17z"/>
<path d="M893 1433 c-16 -6 -17 -43 -2 -43 5 0 7 5 4 10 -4 6 -1 17 5 25 13
16 12 16 -7 8z"/>
<path d="M664 1343 c16 -20 17 -25 5 -40 -11 -15 -10 -15 9 1 12 11 21 20 20
20 -2 1 -14 10 -28 21 l-25 20 19 -22z"/>
<path d="M860 1328 c0 -10 3 -18 8 -18 12 1 47 30 35 30 -7 0 -15 -5 -19 -11
-4 -8 -9 -7 -15 2 -7 11 -9 10 -9 -3z"/>
<path d="M870 1288 c0 -9 7 -19 16 -22 15 -6 15 -4 3 11 -7 10 -15 20 -16 22
-2 2 -3 -3 -3 -11z"/>
<path d="M911 1248 c2 -2 20 -16 39 -33 l35 -30 -29 33 c-17 17 -34 32 -40 32
-5 0 -7 -1 -5 -2z"/>
<path d="M606 1178 c-69 -102 -79 -110 -118 -103 -21 4 -38 3 -42 -3 -4 -6 2
-8 14 -5 11 3 20 1 20 -4 0 -23 51 2 82 40 49 61 93 127 85 127 -3 0 -21 -24
-41 -52z"/>
<path d="M758 1203 c7 -3 16 -2 19 1 4 3 -2 6 -13 5 -11 0 -14 -3 -6 -6z"/>
<path d="M1631 1196 c-7 -8 -20 -12 -31 -9 -12 3 -23 -3 -32 -16 -7 -12 -18
-21 -24 -21 -5 0 -20 -13 -32 -29 -12 -16 -32 -32 -44 -34 -22 -4 -22 -4 2 -6
18 -1 31 8 45 29 11 16 25 30 32 30 7 0 17 9 24 21 7 14 17 19 29 16 11 -3 24
1 31 9 18 22 29 17 44 -18 8 -18 14 -26 15 -18 0 18 -27 60 -39 60 -5 0 -14
-6 -20 -14z"/>
<path d="M379 1166 c-20 -28 -25 -168 -8 -226 20 -65 95 -140 188 -189 l79
-41 124 0 c112 1 120 2 93 15 l-30 13 33 1 c22 1 32 -4 32 -14 0 -8 5 -15 10
-15 6 0 10 9 10 19 0 11 6 21 14 23 26 5 218 190 208 200 -5 5 -37 14 -73 22
-61 12 -64 14 -67 44 -4 37 -5 37 -35 18 -25 -17 -153 -40 -168 -31 -5 4 -12
-1 -15 -9 -7 -18 -34 -22 -34 -6 0 6 -26 10 -59 10 -33 0 -71 4 -85 10 -20 7
-26 6 -26 -4 0 -12 -52 -31 -105 -38 -30 -4 -59 62 -65 148 -5 68 -6 71 -21
50z m361 -202 c0 -21 -30 -50 -38 -37 -5 7 -23 7 -60 0 -45 -10 -57 -9 -83 7
-47 28 -45 12 3 -19 40 -26 45 -27 87 -16 30 8 47 9 55 1 13 -13 139 -13 153
1 7 7 23 7 54 -1 l44 -12 -23 -18 c-21 -17 -26 -17 -57 -4 -43 18 -152 18
-184 0 -15 -8 -20 -16 -12 -20 12 -8 15 -46 4 -46 -15 1 -116 60 -164 97 -50
38 -66 70 -29 60 10 -3 36 1 57 8 21 8 73 14 116 14 62 0 77 -3 77 -15z m264
5 l39 -11 -32 -19 c-17 -10 -44 -19 -59 -18 -37 1 -125 33 -130 47 -5 15 126
15 182 1z m89 -51 c-15 -17 -58 -57 -95 -90 -67 -59 -68 -60 -68 -32 1 24 14
39 70 84 38 30 72 60 74 67 3 6 14 9 26 6 21 -6 21 -6 -7 -35z m-273 -149 c10
-6 3 -8 -22 -9 -41 0 -68 8 -68 20 0 10 68 1 90 -11z"/>
<path d="M950 1165 c-6 -8 -10 -19 -8 -24 1 -6 8 1 15 14 13 28 11 31 -7 10z"/>
<path d="M725 1160 c-7 -12 12 -12 40 0 18 8 17 9 -7 9 -15 1 -30 -3 -33 -9z"/>
<path d="M930 1112 c0 -6 9 -12 20 -15 11 -3 20 -3 20 -1 0 2 -9 8 -20 14 -11
6 -20 7 -20 2z"/>
<path d="M1705 1091 c-3 -5 -2 -12 3 -15 5 -3 9 1 9 9 0 17 -3 19 -12 6z"/>
<path d="M993 1074 c16 -20 79 -45 108 -43 8 0 -8 7 -36 16 -27 8 -59 22 -70
31 -20 17 -20 17 -2 -4z"/>
<path d="M1303 1083 c-7 -2 -13 -14 -12 -26 0 -21 1 -21 8 -3 4 11 16 23 27
27 12 5 13 8 4 8 -8 -1 -21 -3 -27 -6z"/>
<path d="M297 1017 c-33 -82 -50 -180 -42 -235 11 -71 11 -72 75 -72 l59 0
-34 51 c-56 83 -68 156 -41 259 8 30 13 56 11 58 -1 2 -14 -26 -28 -61z"/>
<path d="M764 1065 c-4 -8 -10 -15 -16 -15 -5 0 -6 5 -3 10 8 13 -94 13 -114
1 -11 -7 -10 -10 5 -14 42 -12 160 -17 174 -7 12 8 11 10 -9 10 -16 0 -21 4
-17 15 3 8 1 15 -5 15 -5 0 -12 -7 -15 -15z"/>
<path d="M1663 1047 c-18 -21 -17 -21 1 -7 11 8 27 14 38 12 24 -4 23 4 -1 11
-13 3 -27 -3 -38 -16z"/>
<path d="M1459 1046 c8 -10 9 -16 1 -19 -6 -3 -5 -4 2 -3 19 4 20 23 2 30 -14
5 -15 4 -5 -8z"/>
<path d="M573 1043 c7 -12 136 -37 144 -29 5 5 -8 9 -72 20 -16 3 -41 9 -54
12 -16 5 -22 4 -18 -3z"/>
<path d="M1145 1020 c10 -11 20 -20 23 -20 3 0 -3 9 -13 20 -10 11 -20 20 -23
20 -3 0 3 -9 13 -20z"/>
<path d="M1343 1030 c2 -8 16 -16 33 -17 25 -1 26 0 4 4 -14 3 -29 10 -33 17
-6 7 -7 6 -4 -4z"/>
<path d="M1630 1009 c0 -5 5 -7 10 -4 6 3 10 8 10 11 0 2 -4 4 -10 4 -5 0 -10
-5 -10 -11z"/>
<path d="M1186 1000 c5 -5 25 -12 44 -15 36 -5 29 -1 -25 16 -20 6 -26 6 -19
-1z"/>
<path d="M1283 990 c-11 -16 -10 -18 2 -14 8 4 15 12 15 20 0 19 -3 18 -17 -6z"/>
<path d="M1310 951 c0 -5 10 -15 23 -24 21 -14 21 -15 5 -34 -10 -11 -18 -25
-18 -31 0 -7 8 -12 18 -12 15 0 15 2 2 10 -13 9 -12 12 5 25 17 13 18 18 7 36
-7 11 -11 23 -8 27 3 4 -4 9 -15 9 -10 1 -19 -2 -19 -6z"/>
<path d="M1365 940 c3 -5 8 -10 11 -10 2 0 4 5 4 10 0 6 -5 10 -11 10 -5 0 -7
-4 -4 -10z"/>
<path d="M1614 939 c-3 -6 -2 -15 3 -20 5 -5 9 -1 9 11 0 23 -2 24 -12 9z"/>
<path d="M1389 897 c5 -5 19 -7 32 -5 20 3 19 5 -9 9 -20 3 -29 2 -23 -4z"/>
<path d="M1464 858 l-19 -23 23 19 c21 18 27 26 19 26 -2 0 -12 -10 -23 -22z"/>
<path d="M1066 790 l-66 -80 31 4 c33 3 86 57 74 76 -3 5 4 23 16 40 13 16 20
32 17 35 -3 3 -35 -30 -72 -75z"/>
<path d="M1600 857 c0 -8 -10 -18 -22 -20 l-23 -4 23 -2 c22 -1 41 23 28 36
-3 4 -6 -1 -6 -10z"/>
<path d="M1493 789 c-4 -15 -11 -19 -26 -15 -14 3 -17 2 -9 -6 15 -15 52 0 52
23 0 25 -10 24 -17 -2z"/>
<path d="M1309 763 c-16 -25 -19 -38 -11 -41 8 -2 12 -38 12 -118 l0 -114 60
0 c57 0 60 1 60 25 0 21 -5 25 -30 25 l-30 0 0 89 c0 58 4 91 11 93 12 4 -29
78 -43 78 -3 0 -17 -17 -29 -37z"/>
<path d="M270 585 l0 -95 28 0 c24 0 27 4 27 33 0 28 3 32 30 35 42 5 55 19
55 58 0 43 -30 64 -92 64 l-48 0 0 -95z m90 30 c0 -8 -9 -15 -20 -15 -11 0
-20 7 -20 15 0 8 9 15 20 15 11 0 20 -7 20 -15z"/>
<path d="M451 656 c-32 -34 -37 -93 -12 -133 18 -28 27 -33 59 -33 47 0 70 22
79 74 15 92 -69 153 -126 92z m69 -52 c0 -13 4 -24 10 -24 14 0 1 -28 -18 -35
-9 -3 -24 3 -36 15 -12 11 -15 20 -8 20 7 0 12 11 12 24 0 23 17 38 33 29 4
-2 7 -15 7 -29z"/>
<path d="M600 585 l0 -95 61 0 c57 0 60 1 57 23 -2 17 -11 23 -35 25 l-33 3 0
70 c0 67 -1 69 -25 69 -25 0 -25 0 -25 -95z"/>
<path d="M730 585 c0 -95 0 -95 25 -95 25 0 25 0 25 95 0 95 0 95 -25 95 -25
0 -25 0 -25 -95z"/>
<path d="M800 655 c0 -16 6 -25 15 -25 12 0 15 -14 15 -70 0 -68 1 -70 25 -70
24 0 25 2 25 70 0 56 3 70 15 70 9 0 15 9 15 25 0 24 -3 25 -55 25 -52 0 -55
-1 -55 -25z"/>
<path d="M930 585 c0 -95 0 -95 25 -95 25 0 25 0 25 95 0 95 0 95 -25 95 -25
0 -25 0 -25 -95z"/>
<path d="M1030 662 c-34 -27 -39 -108 -10 -144 37 -47 120 -29 120 25 0 21
-38 23 -46 2 -4 -8 -12 -15 -19 -15 -26 0 -34 64 -11 95 13 18 14 18 25 -3 15
-28 51 -30 51 -2 0 27 -35 60 -64 60 -13 0 -34 -8 -46 -18z"/>
<path d="M1197 673 c-6 -11 -47 -161 -47 -173 0 -6 9 -10 20 -10 11 0 20 7 20
15 0 9 9 15 24 15 13 0 26 -7 30 -15 4 -12 56 -23 56 -12 0 2 -6 26 -14 53 -8
27 -20 68 -26 92 -9 35 -15 42 -35 42 -13 0 -26 -3 -28 -7z m33 -94 c0 -5 -4
-9 -10 -9 -5 0 -10 7 -10 16 0 8 5 12 10 9 6 -3 10 -10 10 -16z"/>
<path d="M310 447 c-21 -11 -25 -20 -25 -57 0 -44 1 -45 43 -60 23 -8 42 -20
42 -27 0 -16 -24 -17 -49 -1 -21 13 -55 4 -49 -14 2 -6 16 -21 31 -32 36 -27
94 -13 117 26 13 25 13 31 0 55 -8 14 -30 31 -49 38 -19 6 -37 17 -39 23 -5
15 34 16 43 2 9 -15 45 7 39 24 -5 14 -46 36 -67 36 -7 0 -23 -6 -37 -13z"/>
<path d="M471 368 c-12 -46 -24 -91 -27 -100 -8 -26 33 -24 41 2 9 27 55 27
62 0 3 -13 14 -20 29 -20 27 0 28 1 13 55 -38 145 -38 145 -68 145 -27 0 -29
-4 -50 -82z m59 -19 c0 -10 -7 -19 -15 -19 -16 0 -19 9 -9 34 8 20 24 11 24
-15z"/>
<path d="M630 350 c0 -99 0 -100 24 -100 21 0 25 5 28 38 4 44 19 44 34 -1 9
-26 17 -33 42 -35 l31 -3 -15 37 c-14 34 -14 40 3 71 16 31 16 36 3 61 -14 25
-22 27 -83 30 l-67 3 0 -101z m100 40 c0 -15 -7 -20 -25 -20 -18 0 -25 5 -25
20 0 15 7 20 25 20 18 0 25 -5 25 -20z"/>
<path d="M836 357 c-14 -51 -26 -96 -26 -100 0 -16 39 -5 45 13 9 27 55 27 62
0 3 -13 14 -20 29 -20 13 0 24 3 24 8 0 6 -31 125 -46 175 -3 11 -15 17 -33
17 -27 0 -29 -4 -55 -93z m64 -8 c0 -10 -7 -19 -15 -19 -16 0 -19 9 -9 34 8
20 24 11 24 -15z"/>
<path d="M1000 350 l0 -100 53 0 c72 0 102 30 102 100 0 70 -30 100 -102 100
l-53 0 0 -100z m88 32 c2 -12 8 -22 13 -22 16 0 10 -26 -12 -46 -21 -19 -21
-18 -40 5 -21 26 -24 41 -9 41 6 0 10 8 10 18 0 38 33 41 38 4z"/>
<path d="M1190 350 l0 -100 25 0 c23 0 25 4 25 41 0 36 2 40 23 37 18 -2 23
-10 25 -40 3 -33 7 -38 28 -38 24 0 24 1 24 100 0 99 0 100 -24 100 -21 0 -25
-5 -28 -37 -2 -30 -7 -38 -23 -38 -16 0 -21 8 -23 38 -3 32 -7 37 -28 37 -24
0 -24 -1 -24 -100z"/>
<path d="M1380 350 l0 -100 25 0 25 0 0 100 0 100 -25 0 -25 0 0 -100z"/>
</g>
</svg>
